<svg width="16" height="16" viewBox="0 0 16 16" fill="none" xmlns="http://www.w3.org/2000/svg">
<path d="M11.334 1.88563C11.5091 1.71053 11.7169 1.57164 11.9457 1.47688C12.1745 1.38212 12.4197 1.33334 12.6673 1.33334C12.9149 1.33334 13.1601 1.38212 13.3889 1.47688C13.6177 1.57164 13.8256 1.71053 14.0007 1.88563C14.1757 2.06072 14.3146 2.26859 14.4094 2.49737C14.5042 2.72614 14.5529 2.97134 14.5529 3.21896C14.5529 3.46658 14.5042 3.71178 14.4094 3.94056C14.3146 4.16933 14.1757 4.3772 14.0007 4.5523L5.00065 13.5523L1.33398 14.5523L2.33398 10.8856L11.334 1.88563Z" stroke="#C5C3C3" stroke-width="2" stroke-linecap="round" stroke-linejoin="round"/>
</svg>
